<svg width="38" height="38" viewBox="0 0 38 38" fill="none" xmlns="http://www.w3.org/2000/svg">
<g opacity="0.3">
<path d="M6 19C6 11.8203 11.8203 6 19 6C26.1797 6 32 11.8203 32 19C32 26.1797 26.1797 32 19 32C11.8203 32 6 26.1797 6 19Z" stroke="#F04438" stroke-width="2"/>
</g>
<g opacity="0.1">
<path d="M1 19C1 9.05888 9.05888 1 19 1C28.9411 1 37 9.05888 37 19C37 28.9411 28.9411 37 19 37C9.05888 37 1 28.9411 1 19Z" stroke="#F04438" stroke-width="2"/>
</g>
<g clipPath="url(#clip0_6599_305)">
<path d="M19 15.6667V19M19 22.3333H19.0083M27.3333 19C27.3333 23.6024 23.6024 27.3333 19 27.3333C14.3976 27.3333 10.6667 23.6024 10.6667 19C10.6667 14.3976 14.3976 10.6667 19 10.6667C23.6024 10.6667 27.3333 14.3976 27.3333 19Z" stroke="#F04438" stroke-width="1.66667" stroke-linecap="round" stroke-linejoin="round"/>
</g>
<defs>
<clipPath id="clip0_6599_305">
<rect width="20" height="20" fill="white" transform="translate(9 9)"/>
</clipPath>
</defs>
</svg>