<svg width="36" height="36" viewBox="0 0 36 36" fill="none" xmlns="http://www.w3.org/2000/svg">
<g opacity="0.3">
<path d="M5.49996 18C5.49996 11.0964 11.0964 5.49999 18 5.49999C24.9035 5.49999 30.5 11.0964 30.5 18C30.5 24.9035 24.9035 30.5 18 30.5C11.0964 30.5 5.49996 24.9035 5.49996 18Z" stroke="#0E9F6E" stroke-width="1.66667"/>
</g>
<g opacity="0.1">
<path d="M1.33333 18C1.33333 8.79525 8.79525 1.33333 18 1.33333C27.2047 1.33333 34.6667 8.79525 34.6667 18C34.6667 27.2047 27.2047 34.6667 18 34.6667C8.79525 34.6667 1.33333 27.2047 1.33333 18Z" stroke="#0E9F6E" stroke-width="1.66667"/>
</g>
<path fill-rule="evenodd" clip-rule="evenodd" d="M18 26C20.1217 26 22.1566 25.1571 23.6569 23.6569C25.1571 22.1566 26 20.1217 26 18C26 15.8783 25.1571 13.8434 23.6569 12.3431C22.1566 10.8429 20.1217 10 18 10C15.8783 10 13.8434 10.8429 12.3431 12.3431C10.8429 13.8434 10 15.8783 10 18C10 20.1217 10.8429 22.1566 12.3431 23.6569C13.8434 25.1571 15.8783 26 18 26ZM21.707 16.707C21.8892 16.5184 21.99 16.2658 21.9877 16.0036C21.9854 15.7414 21.8802 15.4906 21.6948 15.3052C21.5094 15.1198 21.2586 15.0146 20.9964 15.0123C20.7342 15.01 20.4816 15.1108 20.293 15.293L17 18.586L15.707 17.293C15.5184 17.1108 15.2658 17.01 15.0036 17.0123C14.7414 17.0146 14.4906 17.1198 14.3052 17.3052C14.1198 17.4906 14.0146 17.7414 14.0123 18.0036C14.01 18.2658 14.1108 18.5184 14.293 18.707L16.293 20.707C16.4805 20.8945 16.7348 20.9998 17 20.9998C17.2652 20.9998 17.5195 20.8945 17.707 20.707L21.707 16.707Z" fill="#0E9F6E"/>
</svg>
