<svg width="1512" height="934" viewBox="0 0 1512 934" fill="none" xmlns="http://www.w3.org/2000/svg">
    <g style="mix-blend-mode:screen">
        <path d="M1146.39 467.001C1273.64 443.064 1398.86 383.912 1475.26 306.179L1562 217.931L1437.28 195.022C1327.43 174.843 1189.57 196.991 1071.82 248.766C1159.99 158.258 1224.73 40.4059 1238.5 -65.1882L1254.13 -185.069L1139.08 -133.885C1037.74 -88.8016 939.898 6.17819 876.626 113.89C892.016 -8.61432 871.567 -140.153 817.438 -233.279L755.996 -338.999L694.548 -233.279C640.424 -140.153 619.971 -8.61432 635.36 113.89C572.094 6.17819 474.252 -88.8056 372.91 -133.885L257.859 -185.069L273.488 -65.1882C287.256 40.4059 352.003 158.258 440.164 248.766C322.416 196.991 184.554 174.847 74.7048 195.022L-50.0037 217.931L36.7303 306.179C113.129 383.912 238.343 443.061 365.606 467.001C238.347 490.939 113.129 550.083 36.7303 627.822L-50.0037 716.071L74.7048 738.977C184.554 759.16 322.413 737.011 440.164 685.233C352.003 775.747 287.256 893.592 273.488 999.186L257.859 1119.06L372.906 1067.89C474.249 1022.8 572.091 927.823 635.356 820.109C619.967 942.613 640.421 1074.15 694.545 1167.28L755.988 1273L817.43 1167.28C871.558 1074.15 892.008 942.613 876.626 820.109C939.89 927.823 1037.73 1022.81 1139.07 1067.89L1254.12 1119.06L1238.49 999.186C1224.72 893.592 1159.97 775.747 1071.82 685.233C1189.56 737.011 1327.42 759.151 1437.27 738.977L1561.98 716.071L1475.25 627.822C1398.86 550.091 1273.64 490.939 1146.39 467.001Z" fill="url(#paint0_linear_16_62)"/>
    </g>
    <defs>
        <linearGradient id="paint0_linear_16_62" x1="247.212" y1="-339" x2="247.213" y2="1273" gradientUnits="userSpaceOnUse">
            <stop stop-color="white"/>
            <stop offset="0.375" stop-color="#747474"/>
            <stop offset="1" stop-color="#111111"/>
        </linearGradient>
    </defs>
</svg>
